<svg width="40" height="40" viewBox="0 0 40 40" fill="none" xmlns="http://www.w3.org/2000/svg"><path d="M21.4893 14.3432C21.4893 13.2147 22.4041 12.2998 23.5327 12.2998C24.6612 12.2998 25.5761 13.2147 25.5761 14.3432V24.1344C25.5761 25.263 24.6612 26.1778 23.5327 26.1778C22.4041 26.1778 21.4893 25.263 21.4893 24.1344V14.3432Z" fill="#FF84A9"></path><path d="M14.8262 14.3432C14.8262 13.2147 15.741 12.2998 16.8696 12.2998C17.9981 12.2998 18.913 13.2147 18.913 14.3432V24.1344C18.913 25.263 17.9981 26.1778 16.8696 26.1778C15.741 26.1778 14.8262 25.263 14.8262 24.1344V14.3432Z" fill="#FF84A9"></path><path d="M20.2017 38.8701C30.7272 38.8701 39.2598 30.3375 39.2598 19.812C39.2598 9.28651 30.7272 0.753906 20.2017 0.753906C9.67616 0.753906 1.14355 9.28651 1.14355 19.812C1.14355 30.3375 9.67616 38.8701 20.2017 38.8701ZM35.5311 19.812C35.5311 28.2782 28.6678 35.1414 20.2017 35.1414C11.7355 35.1414 4.87227 28.2782 4.87227 19.812C4.87227 11.3458 11.7355 4.48262 20.2017 4.48262C28.6678 4.48262 35.5311 11.3458 35.5311 19.812Z" fill="#FF84A9"></path><path d="M39.0022 20.5957L39.2453 20.5957L39.2521 20.3527C39.2572 20.1717 39.2598 19.99 39.2598 19.8078C39.2598 9.28225 30.7272 0.749648 20.2017 0.749647C9.67616 0.749646 1.14356 9.28225 1.14356 19.8077C1.14356 19.99 1.14612 20.1717 1.1512 20.3527L1.15803 20.5957L1.4011 20.5957L4.63138 20.5957L4.89001 20.5957L4.88124 20.3372C4.87527 20.1615 4.87227 19.985 4.87227 19.8077C4.87227 11.3416 11.7355 4.47836 20.2017 4.47836C28.6679 4.47836 35.5311 11.3416 35.5311 19.8078C35.5311 19.985 35.528 20.1615 35.5221 20.3372L35.5133 20.5957L35.7719 20.5957L39.0022 20.5957Z" fill="#4C9AE4"></path></svg>