<svg width="59" height="58" viewBox="0 0 59 58" fill="none" xmlns="http://www.w3.org/2000/svg"><path fill-rule="evenodd" clip-rule="evenodd" d="M52.5838 0.685547H5.45894C2.46832 0.685547 0.0202637 3.0913 0.0202637 6.03045V52.3429C0.0202637 55.2819 2.46832 57.6877 5.45894 57.6877H52.5838C55.5745 57.6877 58.0225 55.2819 58.0225 52.3429V6.03037C58.0225 3.0913 55.5745 0.685547 52.5838 0.685547ZM32.9925 16.1648H39.6215V8.35205H32.9925C27.8878 8.35205 23.723 12.444 23.723 17.4671V21.3718H18.4224V29.1866H23.7219V50.0212H31.6728V29.1866H38.2952L39.6214 21.3718H31.6727V17.4671C31.6727 16.7601 32.2797 16.1637 32.9925 16.1637V16.1647V16.1648Z" fill="currentColor"></path></svg>