<svg width="59" height="58" viewBox="0 0 59 58" fill="none" xmlns="http://www.w3.org/2000/svg"><path fill-rule="evenodd" clip-rule="evenodd" d="M52.5839 0.686523H5.45898C2.46836 0.686523 0.0214844 3.09121 0.0214844 6.03027V52.3428C0.0214844 55.2818 2.46836 57.6865 5.45898 57.6865H52.5839C55.5745 57.6865 58.0214 55.2818 58.0214 52.3428V6.03027C58.0214 3.09121 55.5745 0.686523 52.5839 0.686523ZM21.7707 46.9989H14.522V22.0608H21.7707V46.9989ZM18.1453 18.4979C16.1416 18.4979 14.5209 16.9053 14.5209 14.936C14.5209 12.9657 16.1415 11.3731 18.1453 11.3731C20.1501 11.3731 21.7707 12.9657 21.7707 14.936C21.7707 16.9052 20.1501 18.4979 18.1453 18.4979ZM47.1464 46.9989H39.8977V32.7495C39.8977 30.7792 38.2761 29.1866 36.2723 29.1866C34.2675 29.1866 32.6469 30.7792 32.6469 32.7495V46.9989H25.396V22.0608H32.6469V26.4821C34.1401 24.4644 36.4307 22.0608 38.9901 22.0608C43.4996 22.0608 47.1463 26.0476 47.1463 30.9675V46.9989H47.1464Z" fill="currentColor"></path></svg>