<svg width="132" height="31" viewBox="0 0 132 31" fill="none" xmlns="http://www.w3.org/2000/svg"><path d="M118.174 4.92133V13.9843H130.824V17.2799H118.174V26.6724H131.737V30.1328H114.524V1.46094H131.737V4.92133H118.174Z" fill="#FF84A9"></path><path d="M96.6369 30.6273C98.2406 30.6273 99.9134 30.4213 101.655 30.0094C103.397 29.5974 105.043 29.0344 106.591 28.3204V24.4068C104.766 25.3955 103.079 26.1233 101.531 26.5902C99.9549 27.0571 98.4065 27.2905 96.8857 27.2905C94.9778 27.2905 93.4985 26.8648 92.4478 26.0135C91.3971 25.1621 90.8717 23.9949 90.8717 22.5119C90.8717 21.4957 91.1621 20.6444 91.7427 19.9578C92.3234 19.2712 93.0561 18.7219 93.9409 18.31C94.8258 17.898 96.0147 17.4449 97.5078 16.9505C99.3051 16.3463 100.757 15.7696 101.863 15.2203C102.941 14.6711 103.867 13.8883 104.642 12.8722C105.416 11.8561 105.803 10.5378 105.803 8.91746C105.803 6.50068 104.918 4.57824 103.149 3.15014C101.379 1.69458 99.001 0.966797 96.0147 0.966797C93.1114 0.966797 90.4432 1.58472 88.0099 2.82058V6.61053C90.7473 5.07258 93.4156 4.3036 96.0147 4.3036C97.9226 4.3036 99.4157 4.68809 100.494 5.45707C101.572 6.19858 102.112 7.22846 102.112 8.54671C102.112 9.453 101.835 10.2082 101.282 10.8124C100.729 11.4166 100.052 11.911 99.2498 12.2955C98.448 12.6525 97.3143 13.0919 95.8488 13.6137C94.0239 14.2179 92.5308 14.8084 91.3695 15.3851C90.2081 15.9618 89.2265 16.7995 88.4247 17.898C87.5952 18.9965 87.1804 20.4109 87.1804 22.1411C87.1804 23.8438 87.5675 25.3406 88.3417 26.6314C89.1159 27.8947 90.222 28.8834 91.6598 29.5974C93.0976 30.284 94.7566 30.6273 96.6369 30.6273Z" fill="#4C9AE4"></path><path d="M67.4266 30.6271C63.9426 30.6271 61.2329 29.5286 59.2974 27.3315C57.3895 25.107 56.4355 22.086 56.4355 18.2686V1.46094H60.0854V18.145C60.0854 20.9462 60.7075 23.1708 61.9518 24.8186C63.2237 26.4389 65.0486 27.2491 67.4266 27.2491C69.8045 27.2491 71.6156 26.4389 72.8599 24.8186C74.1318 23.1708 74.7678 20.9462 74.7678 18.145V1.46094H78.4176V18.2686C78.4176 22.086 77.4499 25.107 75.5143 27.3315C73.6064 29.5286 70.9105 30.6271 67.4266 30.6271Z" fill="#FF84A9"></path><path d="M43.549 22.5529H29.6547L26.7099 30.1328H23.0601L34.1755 1.46094H39.2355L50.351 30.1328H46.4938L43.549 22.5529ZM42.3462 19.4632L36.6226 4.63297L30.8575 19.4632H42.3462Z" fill="#FF84A9"></path><path d="M0.0214844 1.46094H9.39497C16.5841 1.46094 20.1786 4.59177 20.1786 10.8534C20.1786 14.0117 19.28 16.4285 17.4827 18.1038C15.7131 19.7516 13.114 20.5755 9.6853 20.5755H3.67134V30.1328H0.0214844V1.46094ZM9.56087 17.1975C11.9388 17.1975 13.6393 16.7169 14.6624 15.7557C15.7131 14.7944 16.2384 13.2153 16.2384 11.0182C16.2384 8.82114 15.7131 7.25573 14.6624 6.32197C13.6393 5.38821 11.8835 4.92133 9.39497 4.92133H3.67134V17.1975H9.56087Z" fill="#FF84A9"></path></svg>